<svg width="289" height="354" viewBox="0 0 289 354" fill="none" xmlns="http://www.w3.org/2000/svg">
<path d="M96.49 140.55L94.7914 141.606L94.7952 141.612L94.799 141.618L96.49 140.55ZM96.05 120.53L94.2038 119.761L94.1998 119.771L94.1958 119.78L96.05 120.53ZM102.43 111.84L103.694 113.39L103.773 113.326L103.844 113.254L102.43 111.84ZM103.75 113.6L102.55 112L102.54 112.008L103.75 113.6ZM99.57 120.2L97.6635 119.596L97.6568 119.617L97.6505 119.638L99.57 120.2ZM113.1 138.46L114.373 140.003L113.1 138.46ZM122.12 128.89L120.555 127.644L120.548 127.653L120.541 127.662L122.12 128.89ZM131.25 115.91L132.946 116.97L132.953 116.958L131.25 115.91ZM139.39 101.72L141.156 102.658L139.39 101.72ZM145.77 88.85L147.592 89.675L147.598 89.6623L145.77 88.85ZM149.4 79.61L151.316 80.1847L152.174 77.3226L149.201 77.6199L149.4 79.61ZM145.33 80.05L145.478 82.0445L145.514 82.0418L145.551 82.0378L145.33 80.05ZM138.62 80.82L138.861 82.8055L138.886 82.8024L138.911 82.7987L138.62 80.82ZM131.47 82.03L131.043 80.0762L131.029 80.0791L131.47 82.03ZM125.75 83.9L124.89 82.0943L124.873 82.1025L124.856 82.1111L125.75 83.9ZM125.31 88.19L124.608 90.0627L124.676 90.0882L124.746 90.1087L125.31 88.19ZM129.49 89.18L129.116 91.1447L129.168 91.1545L129.22 91.1617L129.49 89.18ZM133.67 89.95L133.185 91.8903L133.198 91.8937L133.212 91.8968L133.67 89.95ZM134.22 92.15L134.746 94.0795L134.8 94.0649L134.852 94.0474L134.22 92.15ZM131.69 92.59L131.524 90.5969H131.524L131.69 92.59ZM123.55 90.83L122.412 92.4744L122.447 92.4992L122.484 92.5225L123.55 90.83ZM123.11 80.71L124.237 82.3625L124.262 82.3453L124.286 82.3275L123.11 80.71ZM137.08 76.53L137.295 78.5184L137.318 78.5159L137.341 78.5129L137.08 76.53ZM144.78 75.76L144.659 73.7637L144.655 73.7639L144.78 75.76ZM150.28 75.32L150.514 77.3063L151.467 77.1941L151.976 76.38L150.28 75.32ZM151.93 73.23L150.456 71.8785L150.45 71.8847L151.93 73.23ZM156.55 73.12L155.199 74.5943L155.233 74.6262L155.27 74.6564L156.55 73.12ZM158.53 74.77L157.25 76.3064L157.622 76.6171L158.096 76.7224L158.53 74.77ZM162.16 75.21L161.994 77.2031L162.037 77.2067L162.08 77.2084L162.16 75.21ZM167.99 75.65L168.203 73.6614L167.99 75.65ZM173.27 76.64L172.695 78.5556L172.708 78.5594L172.721 78.563L173.27 76.64ZM174.59 79.06L174.369 77.0722L174.356 77.0737L174.342 77.0754L174.59 79.06ZM163.04 79.06V81.06H163.088L163.135 81.0577L163.04 79.06ZM158.64 79.17L158.54 77.1725L157.485 77.2253L156.933 78.1271L158.64 79.17ZM152.59 89.51L150.852 88.5209L150.846 88.5309L152.59 89.51ZM144.67 103.15L142.953 102.125L144.67 103.15ZM135.32 117.89L136.98 119.005L135.32 117.89ZM125.09 131.31L123.583 129.995L123.576 130.003L123.57 130.011L125.09 131.31ZM114.64 140.99L113.507 139.342L113.495 139.35L113.484 139.358L114.64 140.99ZM104.3 142.73C101.502 142.73 99.5547 141.657 98.181 139.482L94.799 141.618C96.9453 145.016 100.205 146.73 104.3 146.73V142.73ZM98.1886 139.494C96.7305 137.149 95.96 134.301 95.96 130.87H91.96C91.96 134.919 92.8762 138.525 94.7914 141.606L98.1886 139.494ZM95.96 130.87C95.96 127.7 96.5995 124.507 97.9042 121.28L94.1958 119.78C92.7138 123.446 91.96 127.147 91.96 130.87H95.96ZM97.8962 121.299C99.244 118.064 101.178 115.442 103.694 113.39L101.166 110.29C98.1084 112.784 95.7893 115.956 94.2038 119.761L97.8962 121.299ZM103.844 113.254C103.484 113.615 103.105 113.62 103.09 113.62V109.62C102.488 109.62 101.67 109.772 101.016 110.426L103.844 113.254ZM103.09 113.62C103.148 113.62 102.825 113.633 102.501 113.309C102.177 112.985 102.19 112.662 102.19 112.72H106.19C106.19 112.045 106.02 111.171 105.329 110.481C104.639 109.79 103.765 109.62 103.09 109.62V113.62ZM102.19 112.72C102.19 112.63 102.21 112.483 102.291 112.321C102.372 112.158 102.478 112.054 102.55 112L104.95 115.2C105.747 114.602 106.19 113.716 106.19 112.72H102.19ZM102.54 112.008C100.277 113.728 98.6965 116.338 97.6635 119.596L101.476 120.804C102.35 118.049 103.557 116.259 104.96 115.192L102.54 112.008ZM97.6505 119.638C96.7168 122.829 96.25 126.098 96.25 129.44H100.25C100.25 126.476 100.663 123.585 101.489 120.762L97.6505 119.638ZM96.25 129.44C96.25 132.962 96.8374 136.171 98.0617 139.028L101.738 137.452C100.763 135.175 100.25 132.518 100.25 129.44H96.25ZM98.0617 139.028C98.7059 140.531 99.5868 141.812 100.779 142.719C101.996 143.646 103.42 144.09 104.96 144.09V140.09C104.227 140.09 103.67 139.893 103.201 139.536C102.707 139.16 102.194 138.516 101.738 137.452L98.0617 139.028ZM104.96 144.09C108.107 144.09 111.261 142.57 114.373 140.003L111.827 136.917C109.072 139.19 106.8 140.09 104.96 140.09V144.09ZM114.373 140.003C117.449 137.465 120.555 134.159 123.699 130.118L120.541 127.662C117.525 131.541 114.618 134.615 111.827 136.917L114.373 140.003ZM123.685 130.136C126.889 126.111 129.976 121.722 132.946 116.97L129.554 114.85C126.657 119.485 123.657 123.749 120.555 127.644L123.685 130.136ZM132.953 116.958C135.908 112.157 138.642 107.391 141.156 102.658L137.624 100.782C135.151 105.436 132.459 110.129 129.547 114.862L132.953 116.958ZM141.156 102.658C143.665 97.9364 145.811 93.608 147.592 89.675L143.948 88.025C142.209 91.8654 140.102 96.1169 137.624 100.782L141.156 102.658ZM147.598 89.6623C149.368 85.6799 150.619 82.5079 151.316 80.1847L147.484 79.0353C146.861 81.1121 145.692 84.1001 143.942 88.0377L147.598 89.6623ZM149.201 77.6199C148.455 77.6945 147.088 77.8423 145.109 78.0622L145.551 82.0378C147.532 81.8177 148.878 81.6722 149.599 81.6001L149.201 77.6199ZM145.182 78.0555C143.144 78.2065 140.858 78.4694 138.329 78.8413L138.911 82.7987C141.369 82.4373 143.556 82.1869 145.478 82.0445L145.182 78.0555ZM138.379 78.8345C135.898 79.1353 133.452 79.5492 131.043 80.0762L131.897 83.9838C134.181 83.4842 136.502 83.0913 138.861 82.8055L138.379 78.8345ZM131.029 80.0791C128.66 80.6141 126.603 81.2788 124.89 82.0943L126.61 85.7057C127.977 85.0546 129.733 84.4725 131.911 83.9809L131.029 80.0791ZM124.856 82.1111C123.224 82.9271 121.55 84.2795 121.55 86.43H125.55C125.55 86.5167 125.501 86.5188 125.609 86.3949C125.744 86.2404 126.045 85.9884 126.644 85.6888L124.856 82.1111ZM121.55 86.43C121.55 88.5008 123.266 89.5596 124.608 90.0627L126.012 86.3173C125.802 86.2383 125.651 86.1652 125.548 86.1049C125.497 86.0753 125.461 86.0509 125.438 86.0331C125.414 86.0153 125.404 86.0057 125.404 86.0058C125.406 86.0072 125.448 86.0502 125.488 86.1402C125.53 86.2349 125.55 86.3379 125.55 86.43H121.55ZM124.746 90.1087C126.066 90.4971 127.524 90.8415 129.116 91.1447L129.864 87.2153C128.376 86.9318 127.047 86.6162 125.874 86.2713L124.746 90.1087ZM129.22 91.1617C130.784 91.3749 132.102 91.6195 133.185 91.8903L134.155 88.0097C132.892 87.6938 131.423 87.4251 129.76 87.1983L129.22 91.1617ZM133.212 91.8968C133.472 91.9581 133.673 92.017 133.822 92.0697C133.976 92.124 134.045 92.1612 134.058 92.1689C134.08 92.1812 133.969 92.123 133.841 91.9566C133.693 91.7652 133.54 91.4506 133.54 91.05H137.54C137.54 89.7489 136.6 89.023 136.087 88.7211C135.518 88.3864 134.821 88.1662 134.128 88.0032L133.212 91.8968ZM133.54 91.05C133.54 90.8104 133.604 90.588 133.702 90.4085C133.793 90.2411 133.892 90.1498 133.93 90.1186C133.966 90.0879 133.967 90.0952 133.903 90.1274C133.841 90.1584 133.739 90.202 133.588 90.2526L134.852 94.0474C135.401 93.8646 135.997 93.6027 136.49 93.1914C137.019 92.7512 137.54 92.0322 137.54 91.05H133.54ZM133.694 90.2205C133.011 90.4066 132.289 90.5332 131.524 90.5969L131.856 94.5831C132.851 94.5002 133.815 94.3334 134.746 94.0795L133.694 90.2205ZM131.524 90.5969C130.63 90.6714 130.126 90.7 129.93 90.7V94.7C130.32 94.7 130.99 94.6552 131.856 94.5831L131.524 90.5969ZM129.93 90.7C128.045 90.7 126.286 90.1895 124.616 89.1375L122.484 92.5225C124.774 93.9639 127.268 94.7 129.93 94.7V90.7ZM124.688 89.1856C123.367 88.2711 122.69 87.0052 122.69 85.11H118.69C118.69 88.2015 119.919 90.7489 122.412 92.4744L124.688 89.1856ZM122.69 85.11C122.69 83.9874 123.128 83.1186 124.237 82.3625L121.983 79.0575C119.866 80.5014 118.69 82.5659 118.69 85.11H122.69ZM124.286 82.3275C125.651 81.3354 127.461 80.5078 129.782 79.8934L128.758 76.0266C126.092 76.7322 123.796 77.738 121.934 79.0925L124.286 82.3275ZM129.782 79.8934C132.172 79.2606 134.676 78.8015 137.295 78.5184L136.865 74.5416C134.057 74.8451 131.354 75.3394 128.758 76.0266L129.782 79.8934ZM137.341 78.5129C140.091 78.1511 142.611 77.8994 144.905 77.7561L144.655 73.7639C142.255 73.9139 139.643 74.1756 136.819 74.5471L137.341 78.5129ZM144.901 77.7563C147.331 77.6091 149.21 77.4597 150.514 77.3063L150.046 73.3337C148.857 73.4736 147.069 73.6176 144.659 73.7637L144.901 77.7563ZM151.976 76.38C152.254 75.9352 152.717 75.3378 153.41 74.5753L150.45 71.8847C149.677 72.7356 149.039 73.5315 148.584 74.26L151.976 76.38ZM153.404 74.5814C154.015 73.915 154.327 73.91 154.35 73.91V69.91C152.759 69.91 151.458 70.785 150.456 71.8785L153.404 74.5814ZM154.35 73.91C154.193 73.91 154.186 73.8606 154.376 73.9649C154.558 74.0648 154.831 74.2571 155.199 74.5943L157.901 71.6457C156.977 70.7983 155.749 69.91 154.35 69.91V73.91ZM155.27 74.6564C156.15 75.3898 156.81 75.9398 157.25 76.3064L159.81 73.2336C159.37 72.8669 158.71 72.3169 157.83 71.5835L155.27 74.6564ZM158.096 76.7224C158.906 76.9023 160.242 77.0571 161.994 77.2031L162.326 73.2169C160.558 73.0695 159.474 72.931 158.964 72.8176L158.096 76.7224ZM162.08 77.2084C163.864 77.2798 165.762 77.4228 167.777 77.6386L168.203 73.6614C166.111 73.4372 164.123 73.2869 162.24 73.2116L162.08 77.2084ZM167.777 77.6386C169.747 77.8497 171.379 78.1609 172.695 78.5556L173.845 74.7243C172.227 74.2391 170.34 73.8903 168.203 73.6614L167.777 77.6386ZM172.721 78.563C173.031 78.6518 173.269 78.7402 173.444 78.8211C173.622 78.9031 173.711 78.9654 173.744 78.992C173.775 79.0168 173.729 78.9875 173.675 78.8876C173.615 78.7769 173.58 78.6416 173.58 78.51H177.58C177.58 77.3664 176.997 76.4791 176.261 75.883C175.577 75.3295 174.708 74.9708 173.819 74.7169L172.721 78.563ZM173.58 78.51C173.58 78.1817 173.681 77.8501 173.874 77.571C174.052 77.3139 174.254 77.179 174.361 77.1192C174.541 77.0192 174.605 77.046 174.369 77.0722L174.811 81.0478C175.235 81.0007 175.794 80.8991 176.304 80.6158C176.892 80.289 177.58 79.5965 177.58 78.51H173.58ZM174.342 77.0754C173.861 77.1356 173.251 77.17 172.5 77.17V81.17C173.362 81.17 174.146 81.1311 174.838 81.0446L174.342 77.0754ZM172.5 77.17C171.444 77.17 170.429 77.1348 169.452 77.0651L169.168 81.0549C170.245 81.1319 171.356 81.17 172.5 81.17V77.17ZM169.452 77.0651C168.476 76.9954 167.789 76.95 167.55 76.95V80.95C167.547 80.95 167.659 80.9538 167.975 80.9736C168.26 80.9914 168.656 81.0184 169.168 81.0549L169.452 77.0651ZM167.55 76.95C166.05 76.95 164.515 76.9875 162.945 77.0623L163.135 81.0577C164.645 80.9858 166.117 80.95 167.55 80.95V76.95ZM163.04 77.06C161.54 77.06 160.04 77.0975 158.54 77.1725L158.74 81.1675C160.173 81.0958 161.607 81.06 163.04 81.06V77.06ZM156.933 78.1271C155.305 80.792 153.277 84.2586 150.852 88.5209L154.328 90.499C156.743 86.2547 158.748 82.828 160.347 80.2129L156.933 78.1271ZM150.846 88.5309C148.51 92.6928 145.879 97.2239 142.953 102.125L146.387 104.175C149.328 99.2494 151.977 94.6872 154.334 90.4891L150.846 88.5309ZM142.953 102.125C140.038 107.007 136.941 111.89 133.66 116.775L136.98 119.005C140.299 114.063 143.435 109.12 146.387 104.175L142.953 102.125ZM133.66 116.775C130.402 121.626 127.042 126.031 123.583 129.995L126.597 132.625C130.178 128.522 133.638 123.981 136.98 119.005L133.66 116.775ZM123.57 130.011C120.21 133.942 116.853 137.041 113.507 139.342L115.773 142.638C119.467 140.099 123.077 136.745 126.61 132.609L123.57 130.011ZM113.484 139.358C110.208 141.679 107.157 142.73 104.3 142.73V146.73C108.19 146.73 112.032 145.288 115.796 142.622L113.484 139.358Z" fill="black"/>
<path d="M161.58 192.17L161.779 190.18L161.774 190.179L161.58 192.17ZM158.17 181.72L160.053 182.393L160.057 182.382L160.061 182.372L158.17 181.72ZM160.81 175.12L159.01 174.249L158.998 174.273L158.987 174.297L160.81 175.12ZM164 168.74L162.252 167.769L162.238 167.794L162.224 167.819L164 168.74ZM166.75 163.9L168.474 164.914L168.486 164.893L168.498 164.871L166.75 163.9ZM167.63 160.6L165.773 161.343L165.804 161.42L165.841 161.494L167.63 160.6ZM168.07 157.52L166.342 156.512L166.31 156.568L166.281 156.626L168.07 157.52ZM160.92 135.85L162.541 134.679L159.47 130.427L158.931 135.644L160.92 135.85ZM158.39 136.84L156.584 137.7L156.593 137.717L156.601 137.734L158.39 136.84ZM155.2 131.45L153.501 132.505L153.522 132.539L153.545 132.573L155.2 131.45ZM149.7 125.84L148.472 127.419L148.519 127.455L148.567 127.488L149.7 125.84ZM150.25 121.77L149.258 120.034L149.258 120.034L150.25 121.77ZM158.72 123.64L160.134 122.226L160.134 122.226L158.72 123.64ZM163.89 130.79L162.138 131.754L162.152 131.78L162.167 131.806L163.89 130.79ZM168.29 139.92L166.424 140.641L166.431 140.659L166.439 140.677L168.29 139.92ZM172.8 155.43L170.802 155.525L171.044 160.612L174.329 156.72L172.8 155.43ZM184.57 141.24L183.022 139.974L183.02 139.976L184.57 141.24ZM197.22 127.71L198.585 129.171L199.091 128.699L199.197 128.014L197.22 127.71ZM199.09 124.52L200.549 125.888L200.57 125.866L200.59 125.843L199.09 124.52ZM202.83 121.33L203.898 123.021L203.929 123.001L203.959 122.981L202.83 121.33ZM208.99 121.33L207.52 122.687L207.548 122.716L207.576 122.744L208.99 121.33ZM209.21 126.06L210.332 127.716L210.344 127.707L210.357 127.698L209.21 126.06ZM200.96 132.66L202.267 134.174L202.277 134.165L202.287 134.157L200.96 132.66ZM190.62 142.34L192.02 143.768L192.027 143.761L192.034 143.754L190.62 142.34ZM179.84 153.78L178.333 152.465L178.331 152.467L179.84 153.78ZM170.27 165.77L168.653 164.594L168.649 164.599L170.27 165.77ZM163.34 177.1L161.544 176.22L161.537 176.235L161.53 176.25L163.34 177.1ZM161.03 189.09L162.819 188.196L162.763 188.084L162.694 187.981L161.03 189.09ZM163.45 191.62L164.752 193.139L163.45 191.62ZM161.774 190.179C160.599 190.065 160.008 189.711 159.691 189.354C159.368 188.992 159.07 188.339 159.07 187.11H155.07C155.07 188.961 155.524 190.691 156.704 192.016C157.89 193.346 159.554 193.982 161.386 194.161L161.774 190.179ZM159.07 187.11C159.07 185.873 159.368 184.313 160.053 182.393L156.287 181.047C155.506 183.234 155.07 185.267 155.07 187.11H159.07ZM160.061 182.372C160.772 180.309 161.629 178.166 162.633 175.943L158.987 174.297C157.938 176.62 157.035 178.877 156.279 181.068L160.061 182.372ZM162.61 175.991C163.703 173.732 164.758 171.622 165.776 169.661L162.224 167.819C161.188 169.818 160.117 171.961 159.01 174.249L162.61 175.991ZM165.748 169.711C166.844 167.739 167.752 166.141 168.474 164.914L165.026 162.886C164.281 164.152 163.356 165.781 162.252 167.769L165.748 169.711ZM168.498 164.871C168.869 164.203 169.161 163.66 169.364 163.254C169.464 163.055 169.556 162.861 169.627 162.689C169.663 162.605 169.705 162.497 169.742 162.379C169.763 162.313 169.85 162.04 169.85 161.7H165.85C165.85 161.52 165.876 161.384 165.888 161.326C165.902 161.258 165.917 161.209 165.924 161.186C165.938 161.142 165.946 161.125 165.935 161.151C165.915 161.199 165.87 161.299 165.786 161.466C165.622 161.793 165.364 162.277 165.002 162.929L168.498 164.871ZM169.85 161.7C169.85 161.051 169.743 160.355 169.419 159.706L165.841 161.494C165.825 161.462 165.827 161.454 165.834 161.487C165.841 161.521 165.85 161.589 165.85 161.7H169.85ZM169.487 159.857C169.445 159.752 169.41 159.605 169.41 159.39H165.41C165.41 160.055 165.522 160.714 165.773 161.343L169.487 159.857ZM169.41 159.39C169.41 159.488 169.397 159.532 169.404 159.501C169.409 159.475 169.425 159.414 169.461 159.313C169.534 159.107 169.66 158.812 169.859 158.414L166.281 156.626C166.04 157.108 165.836 157.564 165.689 157.982C165.554 158.364 165.41 158.866 165.41 159.39H169.41ZM169.798 158.528C170.443 157.421 170.84 156.232 170.84 154.99H166.84C166.84 155.361 166.724 155.859 166.342 156.512L169.798 158.528ZM170.84 154.99C170.84 151.271 169.908 147.593 168.099 143.976L164.521 145.764C166.086 148.893 166.84 151.962 166.84 154.99H170.84ZM168.099 143.976C166.371 140.52 164.52 137.419 162.541 134.679L159.299 137.021C161.133 139.561 162.875 142.473 164.521 145.764L168.099 143.976ZM158.931 135.644C158.824 136.679 158.708 137.343 158.607 137.711C158.552 137.91 158.535 137.894 158.602 137.786C158.638 137.727 158.747 137.563 158.961 137.4C159.196 137.221 159.567 137.04 160.04 137.04V141.04C161.205 141.04 161.815 140.195 162.001 139.895C162.233 139.522 162.371 139.107 162.463 138.774C162.655 138.078 162.796 137.147 162.909 136.056L158.931 135.644ZM160.04 137.04C160.604 137.04 160.939 137.308 160.98 137.341C161.049 137.396 161.039 137.405 160.953 137.29C160.785 137.066 160.527 136.641 160.179 135.946L156.601 137.734C156.987 138.505 157.37 139.18 157.753 139.69C157.941 139.942 158.183 140.226 158.481 140.464C158.752 140.681 159.292 141.04 160.04 141.04V137.04ZM160.196 135.98C159.404 134.318 158.282 132.43 156.855 130.327L153.545 132.573C154.905 134.577 155.909 136.282 156.584 137.7L160.196 135.98ZM156.899 130.395C155.415 128.004 153.376 125.94 150.833 124.192L148.567 127.488C150.717 128.966 152.345 130.643 153.501 132.505L156.899 130.395ZM150.928 124.261C150.825 124.182 150.754 124.116 150.707 124.067C150.659 124.017 150.641 123.99 150.64 123.988C150.639 123.987 150.658 124.016 150.676 124.073C150.695 124.132 150.71 124.21 150.71 124.3H146.71C146.71 125.734 147.63 126.763 148.472 127.419L150.928 124.261ZM150.71 124.3C150.71 123.981 150.782 123.77 151.242 123.506L149.258 120.034C147.665 120.944 146.71 122.419 146.71 124.3H150.71ZM151.242 123.506C152.039 123.051 152.689 122.89 153.22 122.89V118.89C151.844 118.89 150.515 119.315 149.258 120.034L151.242 123.506ZM153.22 122.89C154.336 122.89 155.69 123.439 157.306 125.054L160.134 122.226C158.083 120.174 155.771 118.89 153.22 118.89V122.89ZM157.306 125.054C158.973 126.722 160.59 128.94 162.138 131.754L165.642 129.826C163.963 126.773 162.133 124.225 160.134 122.226L157.306 125.054ZM162.167 131.806C163.796 134.568 165.216 137.512 166.424 140.641L170.156 139.199C168.871 135.875 167.357 132.732 165.613 129.774L162.167 131.806ZM166.439 140.677C167.737 143.851 168.775 146.79 169.559 149.496L173.401 148.384C172.571 145.517 171.483 142.443 170.141 139.163L166.439 140.677ZM169.559 149.496C170.353 152.24 170.74 154.223 170.802 155.525L174.798 155.335C174.713 153.557 174.22 151.214 173.401 148.384L169.559 149.496ZM174.329 156.72C178.296 152.018 182.226 147.279 186.12 142.504L183.02 139.976C179.14 144.734 175.224 149.455 171.271 154.14L174.329 156.72ZM186.118 142.506C190.023 137.734 194.179 133.289 198.585 129.171L195.855 126.249C191.315 130.491 187.037 135.066 183.022 139.974L186.118 142.506ZM199.197 128.014C199.253 127.646 199.559 126.944 200.549 125.888L197.631 123.152C196.421 124.443 195.48 125.867 195.243 127.406L199.197 128.014ZM200.59 125.843C201.565 124.738 202.667 123.799 203.898 123.021L201.762 119.639C200.207 120.621 198.815 121.809 197.59 123.197L200.59 125.843ZM203.959 122.981C205.314 122.053 205.976 121.9 206.13 121.9V117.9C204.67 117.9 203.132 118.7 201.701 119.679L203.959 122.981ZM206.13 121.9C206.459 121.9 206.913 122.028 207.52 122.687L210.46 119.973C209.307 118.725 207.855 117.9 206.13 117.9V121.9ZM207.576 122.744C208.166 123.334 208.31 123.803 208.31 124.19H212.31C212.31 122.524 211.574 121.086 210.404 119.916L207.576 122.744ZM208.31 124.19C208.31 124.205 208.308 124.205 208.311 124.198C208.313 124.19 208.315 124.187 208.311 124.193C208.303 124.207 208.249 124.291 208.063 124.422L210.357 127.698C211.491 126.904 212.31 125.724 212.31 124.19H208.31ZM208.088 124.404C205.715 126.012 202.893 128.274 199.633 131.163L202.287 134.157C205.481 131.326 208.158 129.188 210.332 127.716L208.088 124.404ZM199.653 131.146C196.382 133.971 192.9 137.232 189.206 140.926L192.034 143.754C195.674 140.115 199.084 136.923 202.267 134.174L199.653 131.146ZM189.22 140.912C185.515 144.543 181.886 148.394 178.333 152.465L181.347 155.095C184.834 151.099 188.392 147.324 192.02 143.768L189.22 140.912ZM178.331 152.467C174.848 156.469 171.622 160.511 168.653 164.594L171.887 166.946C174.785 162.963 177.938 159.011 181.349 155.093L178.331 152.467ZM168.649 164.599C165.736 168.632 163.363 172.506 161.544 176.22L165.136 177.98C166.837 174.508 169.084 170.828 171.891 166.941L168.649 164.599ZM161.53 176.25C159.767 180.004 158.81 183.492 158.81 186.67H162.81C162.81 184.274 163.539 181.382 165.15 177.95L161.53 176.25ZM158.81 186.67C158.81 187.391 158.829 188.01 158.873 188.501C158.895 188.745 158.927 188.997 158.978 189.234C159.017 189.415 159.11 189.816 159.366 190.199L162.694 187.981C162.801 188.141 162.85 188.273 162.866 188.319C162.885 188.374 162.891 188.405 162.889 188.396C162.885 188.376 162.871 188.299 162.857 188.139C162.828 187.823 162.81 187.343 162.81 186.67H158.81ZM159.241 189.984C159.707 190.916 160.594 191.234 161.037 191.352C161.555 191.491 162.129 191.53 162.68 191.53V187.53C162.491 187.53 162.344 187.523 162.235 187.512C162.181 187.507 162.14 187.501 162.111 187.496C162.097 187.494 162.086 187.492 162.078 187.49C162.071 187.488 162.068 187.487 162.068 187.488C162.068 187.488 162.073 187.489 162.081 187.492C162.09 187.495 162.103 187.499 162.121 187.506C162.155 187.52 162.212 187.547 162.284 187.592C162.427 187.682 162.655 187.869 162.819 188.196L159.241 189.984ZM162.68 191.53C162.859 191.53 162.969 191.542 163.025 191.551C163.086 191.561 163.042 191.562 162.941 191.511C162.832 191.457 162.63 191.328 162.46 191.073C162.281 190.805 162.22 190.522 162.22 190.3H166.22C166.22 189.822 166.095 189.314 165.788 188.854C165.489 188.406 165.095 188.116 164.729 187.934C164.055 187.596 163.295 187.53 162.68 187.53V191.53ZM162.22 190.3C162.22 190.213 162.233 190.134 162.252 190.07C162.27 190.007 162.291 189.968 162.3 189.952C162.308 189.938 162.306 189.945 162.282 189.973C162.257 190.001 162.215 190.044 162.148 190.101L164.752 193.139C165.47 192.523 166.22 191.578 166.22 190.3H162.22ZM162.148 190.101C162.09 190.152 162.023 190.204 161.779 190.18L161.381 194.16C162.604 194.282 163.784 193.968 164.752 193.139L162.148 190.101Z" fill="black"/>
<path d="M53.3516 265.09C47.4922 263.859 44.1523 262.277 42.9219 260.52C32.7852 246.398 82.1797 246.633 87.043 246.398C86.6914 248.332 86.2812 250.617 85.6953 253.547C81.6523 273.645 72.9805 309.27 57.1602 306.105C43.625 303.41 2.90234 260.637 9.11328 242.883C11.3984 236.32 25.9297 232.688 39.3477 239.25C39.9336 239.543 40.5195 239.895 41.0469 239.484C41.5742 239.074 41.8086 238.137 41.2812 237.785C28.1562 230.109 9.875 233.332 6.82812 242.121C0.0898438 261.34 41.75 305.461 56.6914 308.449C74.6797 312.023 83.8789 274.992 88.0391 254.016C88.5664 251.379 89.0938 248.625 89.5039 246.398C89.5625 246.398 89.6797 246.34 89.7383 246.281C94.8945 244.23 114.465 245.93 119.738 246.34C120.383 246.398 120.969 245.871 121.027 245.227C121.379 240.832 90.5 243.41 89.2109 243.938C82.1797 244.172 28.2734 244.113 40.9883 261.926C42.5703 264.152 46.3789 266.086 52.8242 267.434C53.4688 267.609 54.1133 267.199 54.2305 266.496C54.4062 265.852 53.9961 265.207 53.3516 265.09ZM97.0039 279.445C94.8945 276.516 91.7891 277.102 89.2109 278.918C87.9805 279.797 86.9258 280.969 86.1641 282.082C85.3438 283.312 84.875 284.66 84.9922 285.715C85.1094 287.238 86.1641 288.176 88.3906 287.941C92.375 287.531 95.8906 284.777 98.1758 282.434C97.8828 286.184 98.293 287.766 100.051 288C101.34 288.234 103.039 287.238 105.676 285.715C107.492 284.66 109.777 283.312 112.648 281.906C113.234 281.613 113.527 280.91 113.234 280.324C112.941 279.738 112.18 279.445 111.594 279.738C108.664 281.203 106.262 282.551 104.445 283.605C102.277 284.895 100.871 285.715 100.402 285.656C100.109 285.598 100.344 283.723 100.988 278.801C101.047 278.332 100.871 277.863 100.461 277.629C99.9336 277.277 99.1719 277.395 98.8203 277.922C98.8203 277.922 98.2344 278.801 97.1797 279.914C97.1797 279.738 97.1211 279.562 97.0039 279.445ZM95.8906 281.32C93.957 283.254 91.2031 285.246 88.1562 285.539C87.6289 285.598 87.3945 285.539 87.3945 285.48C87.3359 284.953 87.6289 284.25 88.1562 283.43C88.8008 282.492 89.6797 281.555 90.6172 280.91C92.1406 279.797 93.957 279.328 95.0703 280.852C95.2461 281.145 95.5391 281.32 95.8906 281.32ZM120.148 279.387C121.789 276.926 122.258 275.168 122.023 273.996C121.672 272.355 120.266 271.828 118.449 272.18C117.16 272.414 115.578 273.117 114.23 274.113C111.828 275.93 110.012 278.625 111.066 281.32C111.652 282.844 112.824 284.426 114.055 286.008C101.867 291.281 89.8555 297.785 107.082 297.375C116.926 297.199 119.855 294.914 119.797 291.809C119.738 290.285 118.859 288.645 117.746 287.004C124.309 284.367 130.812 282.082 130.871 282.023C131.516 281.789 131.809 281.145 131.574 280.5C131.398 279.855 130.695 279.562 130.051 279.797C129.992 279.797 123.43 282.141 116.34 285.07L116.047 284.719C114.934 283.195 113.762 281.672 113.293 280.441C112.707 278.977 113.996 277.277 115.637 276.047C116.691 275.285 117.922 274.699 118.859 274.523C119.328 274.465 119.68 274.406 119.68 274.523C119.797 275.051 119.387 276.164 118.156 278.039C117.746 278.566 117.922 279.328 118.449 279.738C118.977 280.09 119.738 279.914 120.148 279.387ZM117.395 291.867C117.453 293.566 115.051 294.797 107.023 294.973C99.8164 295.148 107.141 291.457 115.52 287.941C116.516 289.406 117.336 290.812 117.395 291.867ZM168.195 279.445C162.57 284.836 159.934 286.359 158.996 285.598C158.059 284.836 158.527 281.496 159.523 277.219C160.109 274.758 159.641 273.586 158.469 273.293C156.594 272.883 153.078 276.984 149.973 280.559C149.621 280.969 149.328 281.379 148.977 281.73C150.207 279.504 151.438 277.16 151.145 275.52C150.617 270.832 146.691 269.777 142.531 270.305C140.539 270.539 138.547 271.125 136.848 271.828C135.09 272.531 133.684 273.352 133.039 274.055C132.277 274.934 132.16 275.754 132.922 276.457C136.73 279.973 136.906 282.258 135.793 283.488C135.148 284.191 133.977 284.602 132.863 284.719H132.805C131.809 284.836 130.93 284.66 130.578 284.191C130.109 283.723 130.52 282.609 132.688 280.676C133.156 280.207 133.215 279.445 132.805 278.977C132.336 278.449 131.574 278.391 131.105 278.859C127.59 281.965 127.473 284.309 128.762 285.773C129.641 286.828 131.281 287.238 132.98 287.121H133.098C134.738 287.004 136.438 286.301 137.609 285.07C139.426 283.078 139.66 279.738 135.207 275.344C135.793 274.934 136.672 274.465 137.727 273.996C139.25 273.41 141.066 272.883 142.824 272.648C145.695 272.355 148.449 272.941 148.801 275.812C148.801 275.812 148.801 275.812 148.801 275.871C148.977 276.809 147.746 279.035 146.574 281.086C145.227 283.488 144.055 285.715 145.109 286.887C145.812 287.707 146.691 287.473 147.746 286.535C148.742 285.656 150.207 283.957 151.789 282.141C154.484 279.035 157.473 275.578 157.883 275.637C158.176 275.695 157.355 275.871 157.18 276.691C156.008 281.73 155.656 285.949 157.531 287.473C159.406 289.055 163.156 287.648 169.836 281.203C170.305 280.734 170.363 279.973 169.895 279.504C169.426 279.035 168.664 278.977 168.195 279.445ZM171.008 277.688C170.949 277.688 166.203 278.801 169.543 275.109C172.707 271.594 184.543 265.617 196.613 261.516C206.047 258.352 215.539 256.359 220.871 257.766C224.328 258.645 224.68 260.812 224.035 263.332C223.625 264.738 223.039 266.32 222.395 267.844C221.633 269.66 220.93 271.477 220.578 273.176C219.875 276.633 220.637 279.387 225.559 280.383C231.184 281.555 239.973 272.648 247.238 265.266C251.984 260.461 256.027 256.359 256.906 256.711C257.902 257.121 256.613 262.219 251.398 275.93C239.504 273.938 233.117 280.148 230.715 287.062C229.602 290.344 229.367 293.742 229.895 296.555C230.422 299.543 231.887 301.887 233.996 302.707C238.156 304.289 244.953 299.484 252.219 280.5C252.512 279.855 252.688 279.27 252.922 278.684C254.035 278.977 255.266 279.328 256.496 279.738C257.082 279.973 257.785 279.621 257.961 278.977C258.195 278.391 257.902 277.688 257.258 277.453C256.027 277.043 254.914 276.691 253.801 276.457C259.367 261.281 260.07 255.363 257.785 254.484C255.441 253.605 250.871 258.176 245.539 263.625C238.684 270.539 230.422 278.918 226.027 278.039C222.98 277.395 222.512 275.754 222.922 273.645C223.215 272.18 223.918 270.48 224.621 268.723C225.266 267.141 225.91 265.5 226.32 263.977C227.316 260.109 226.789 256.828 221.457 255.422C215.598 253.957 205.637 255.949 195.852 259.289C183.43 263.449 171.125 269.719 167.727 273.527C159.348 282.844 171.477 280.031 171.535 280.031C172.18 279.914 172.59 279.27 172.414 278.625C172.297 277.98 171.652 277.57 171.008 277.688ZM249.992 279.621C243.312 296.965 237.922 301.652 234.816 300.48C233.586 299.953 232.648 298.312 232.238 296.086C231.77 293.684 232.004 290.695 233 287.883C234.992 282.023 240.441 276.75 250.52 278.273C250.402 278.684 250.168 279.152 249.992 279.621ZM262.004 276.164C261.945 276.164 256.086 284.953 255.969 287.648C255.793 290.988 261.594 287.062 265.812 283.781C265.227 285.715 265.168 287.59 266.75 288.41C267.746 288.879 269.152 288.234 270.676 286.828C271.965 285.598 273.547 283.723 275.188 281.555C275.598 281.027 275.48 280.266 274.953 279.914C274.426 279.504 273.664 279.621 273.254 280.148C268.215 287.883 265.344 288.293 270.266 280.09C270.559 279.68 270.559 279.035 270.207 278.625C269.738 278.156 268.977 278.098 268.508 278.508C263.293 283.605 258.84 285.773 258.84 285.773C259.367 283.781 263.938 277.512 263.996 277.512C264.348 276.926 264.23 276.223 263.645 275.812C263.117 275.461 262.355 275.637 262.004 276.164Z" fill="black"/>
<path d="M65.5577 89.547C65.5577 86.7002 65.5594 84.6728 65.718 83.0643C65.8733 81.4887 66.1706 80.4344 66.6965 79.5235C67.2225 78.6125 67.9868 77.828 69.2737 76.9056C70.5874 75.9641 72.3423 74.9489 74.8077 73.5255L132.75 40.0725C135.215 38.6491 136.972 37.6369 138.444 36.97C139.886 36.3167 140.948 36.047 142 36.047C143.052 36.047 144.114 36.3167 145.556 36.97C147.028 37.6369 148.785 38.6491 151.25 40.0725L209.192 73.5255C211.658 74.9489 213.413 75.9641 214.726 76.9056C216.013 77.8279 216.778 78.6125 217.304 79.5235C217.829 80.4345 218.127 81.4887 218.282 83.0643C218.441 84.6728 218.442 86.7001 218.442 89.547L218.442 156.453C218.442 159.3 218.441 161.327 218.282 162.936C218.127 164.511 217.829 165.566 217.304 166.476C216.778 167.387 216.013 168.172 214.726 169.094C213.413 170.036 211.658 171.051 209.192 172.474L151.25 205.927C148.785 207.351 147.028 208.363 145.556 209.03C144.114 209.683 143.052 209.953 142 209.953C140.948 209.953 139.886 209.683 138.444 209.03C136.972 208.363 135.215 207.351 132.75 205.927L74.8077 172.474C72.3423 171.051 70.5874 170.036 69.2737 169.094C67.9868 168.172 67.2225 167.387 66.6965 166.476C66.1706 165.566 65.8733 164.511 65.718 162.936C65.5594 161.327 65.5577 159.3 65.5577 156.453L65.5577 89.547Z" stroke="black" stroke-width="3"/>
<path d="M234.385 165.395C234.385 168.242 234.383 170.269 234.224 171.878C234.069 173.454 233.772 174.508 233.246 175.419C232.72 176.33 231.955 177.114 230.669 178.037C229.355 178.978 227.6 179.993 225.135 181.417L167.192 214.87C164.727 216.293 162.97 217.305 161.498 217.972C160.056 218.626 158.994 218.895 157.942 218.895C156.89 218.895 155.829 218.626 154.387 217.972C152.914 217.305 151.158 216.293 148.692 214.87L90.75 181.417C88.2845 179.993 86.5297 178.978 85.2159 178.037C83.9291 177.114 83.1647 176.33 82.6388 175.419C82.1128 174.508 81.8155 173.454 81.6602 171.878C81.5017 170.269 81.5 168.242 81.5 165.395L81.5 98.4893C81.5 95.6425 81.5017 93.6151 81.6602 92.0066C81.8155 90.431 82.1128 89.3767 82.6388 88.4658C83.1647 87.5548 83.9291 86.7703 85.216 85.8479C86.5297 84.9064 88.2846 83.8912 90.75 82.4678L148.692 49.0148C151.158 47.5914 152.914 46.5792 154.387 45.9123C155.829 45.259 156.89 44.9893 157.942 44.9893C158.994 44.9893 160.056 45.259 161.498 45.9123C162.97 46.5792 164.727 47.5914 167.192 49.0148L225.135 82.4678C227.6 83.8912 229.355 84.9064 230.669 85.8479C231.955 86.7702 232.72 87.5548 233.246 88.4658C233.772 89.3767 234.069 90.431 234.224 92.0066C234.383 93.6151 234.385 95.6425 234.385 98.4893L234.385 165.395Z" stroke="black" stroke-width="3"/>
</svg>
